<svg width="450" height="450" viewBox="0 0 450 450" fill="none" xmlns="http://www.w3.org/2000/svg">
<path d="M303.5 379.5L245.5 307.5L381 191L303.5 379.5Z" fill="#025B10"/>
<path d="M275.376 248L233 195.289L332 110L275.376 248Z" fill="#025B10"/>
<path d="M174.624 248L217 195.289L118 110L174.624 248Z" fill="#025B10"/>
<path d="M146.5 379.5L204.5 307.5L69 191L146.5 379.5Z" fill="#025B10"/>
<path fill-rule="evenodd" clip-rule="evenodd" d="M450 225C450 349.264 349.264 450 225 450C100.736 450 0 349.264 0 225C0 100.736 100.736 0 225 0C349.264 0 450 100.736 450 225ZM205 408.036V350H245V407.821C337.285 397.394 409 319.072 409 224C409 121.827 326.173 39 224 39C121.827 39 39 121.827 39 224C39 319.758 111.753 398.523 205 408.036Z" fill="#025B10"/>
<path d="M269 113C269 137.853 248.853 158 224 158C199.147 158 179 137.853 179 113C179 88.1472 199.147 68 224 68C248.853 68 269 88.1472 269 113Z" fill="#B1150D"/>
</svg>
